<svg xmlns="http://www.w3.org/2000/svg" xmlns:xlink="http://www.w3.org/1999/xlink" width="600" zoomAndPan="magnify" viewBox="0 0 450 149.999998" height="200" preserveAspectRatio="xMidYMid meet" version="1.0"><defs><g/><clipPath id="id1"><path d="M 77 111.742188 L 373 111.742188 L 373 116.992188 L 77 116.992188 Z M 77 111.742188 " clip-rule="nonzero"/></clipPath></defs><rect x="-45" width="540" fill="#ffffff" y="-15" height="179.999997" fill-opacity="1"/><rect x="-45" width="540" fill="#ffffff" y="-15" height="179.999997" fill-opacity="1"/><rect x="-45" width="540" fill="#ff1616" y="-15" height="179.999997" fill-opacity="1"/><g clip-path="url(#id1)"><path fill="#fff5ec" d="M 77.160156 111.742188 L 372.835938 111.742188 L 372.835938 112.429688 L 77.160156 112.429688 L 77.160156 111.742188 M 77.160156 113.4375 L 372.835938 113.4375 L 372.835938 114.792969 L 77.160156 114.792969 L 77.160156 113.4375 M 77.160156 115.816406 L 372.835938 115.816406 L 372.835938 116.503906 L 77.160156 116.503906 L 77.160156 115.816406 " fill-opacity="1" fill-rule="nonzero"/></g><g fill="#fff5ec" fill-opacity="1"><g transform="translate(19.207074, 50.523749)"><g><path d="M 10.566406 -13.945312 C 13.609375 -13.609375 15.300781 -12.042969 15.300781 -9.507812 C 15.300781 -7.480469 13.609375 -5.746094 11.453125 -5.746094 C 9.59375 -5.746094 8.113281 -6.210938 6.675781 -8.03125 L 1.269531 -4.058594 C 4.269531 -0.761719 7.859375 0.550781 11.453125 0.550781 C 16.988281 0.550781 22.101562 -3.847656 22.101562 -9.972656 C 22.101562 -16.058594 17.664062 -19.695312 12.296875 -20.03125 C 8.960938 -20.242188 7.902344 -21.554688 7.902344 -22.992188 C 7.902344 -24.722656 9.085938 -25.78125 10.820312 -25.78125 C 11.917969 -25.78125 13.3125 -25.105469 14.15625 -24.214844 L 19.3125 -27.976562 C 16.90625 -30.851562 13.945312 -32.035156 10.820312 -32.035156 C 6.464844 -32.035156 1.5625 -28.273438 1.5625 -22.949219 C 1.5625 -18.003906 5.113281 -14.582031 10.566406 -13.945312 Z M 10.566406 -13.945312 "/></g></g></g><g fill="#fff5ec" fill-opacity="1"><g transform="translate(42.702434, 50.523749)"><g><path d="M 16.3125 0.550781 C 24.679688 0.550781 29.796875 -4.859375 29.796875 -14.03125 L 29.796875 -31.484375 L 23.328125 -31.484375 L 23.328125 -13.480469 C 23.328125 -8.75 21.214844 -5.746094 16.3125 -5.746094 C 11.664062 -5.746094 9.253906 -8.535156 9.253906 -13.480469 L 9.253906 -31.484375 L 2.703125 -31.484375 L 2.703125 -14.582031 C 2.703125 -5.832031 7.101562 0.550781 16.3125 0.550781 Z M 16.3125 0.550781 "/></g></g></g><g fill="#fff5ec" fill-opacity="1"><g transform="translate(75.19872, 50.523749)"><g><path d="M 9.550781 0 L 9.550781 -4.777344 L 13.3125 -4.777344 C 21.214844 -4.777344 26.921875 -10.734375 26.921875 -18.808594 C 26.921875 -25.1875 21.46875 -31.484375 13.734375 -31.484375 L 3 -31.484375 L 3 0 Z M 9.550781 -10.734375 L 9.550781 -25.570312 L 13.523438 -25.570312 C 17.792969 -25.570312 20.203125 -21.808594 20.203125 -18.128906 C 20.203125 -14.074219 17.707031 -10.734375 13.144531 -10.734375 Z M 9.550781 -10.734375 "/></g></g></g><g fill="#fff5ec" fill-opacity="1"><g transform="translate(103.384704, 50.523749)"><g><path d="M 22.527344 0 L 22.527344 -5.917969 L 9.550781 -5.917969 L 9.550781 -13.820312 L 21.386719 -13.820312 L 21.386719 -19.695312 L 9.550781 -19.695312 L 9.550781 -25.570312 L 19.738281 -25.570312 L 19.738281 -31.484375 L 3 -31.484375 L 3 0 Z M 22.527344 0 "/></g></g></g><g fill="#fff5ec" fill-opacity="1"><g transform="translate(127.598444, 50.523749)"><g><path d="M 12.847656 -5.453125 L 18.003906 0 L 26.710938 0 L 19.90625 -7.269531 C 24.300781 -9.296875 27.003906 -13.441406 27.003906 -19.101562 C 27.003906 -25.949219 21.34375 -31.484375 13.945312 -31.484375 L 3 -31.484375 L 3 0 L 9.550781 0 L 9.550781 -5.453125 Z M 9.550781 -11.367188 L 9.550781 -25.570312 L 13.523438 -25.570312 C 18.003906 -25.570312 20.285156 -22.441406 20.285156 -18.59375 C 20.285156 -13.90625 17.453125 -11.367188 12.257812 -11.367188 Z M 9.550781 -11.367188 "/></g></g></g><g fill="#fff5ec" fill-opacity="1"><g transform="translate(156.122486, 50.523749)"><g/></g></g><g fill="#fff5ec" fill-opacity="1"><g transform="translate(173.913036, 50.523749)"><g><path d="M 3 -31.484375 L 3 0 L 22.230469 0 L 22.230469 -5.917969 L 9.550781 -5.917969 L 9.550781 -31.484375 Z M 3 -31.484375 "/></g></g></g><g fill="#fff5ec" fill-opacity="1"><g transform="translate(196.774531, 50.523749)"><g><path d="M 25.863281 0 L 33.007812 0 L 16.355469 -32.035156 L -0.253906 0 L 6.507812 0 L 8.535156 -4.226562 L 23.792969 -4.226562 Z M 16.101562 -19.949219 L 20.921875 -10.144531 L 11.367188 -10.144531 Z M 16.101562 -19.949219 "/></g></g></g><g fill="#fff5ec" fill-opacity="1"><g transform="translate(229.524361, 50.523749)"><g><path d="M 25.398438 -13.269531 L 3 -32.078125 L 3 0 L 9.550781 0 L 9.550781 -18.089844 L 31.949219 0.550781 L 31.949219 -31.484375 L 25.398438 -31.484375 Z M 25.398438 -13.269531 "/></g></g></g><g fill="#fff5ec" fill-opacity="1"><g transform="translate(264.471594, 50.523749)"><g><path d="M 34.191406 -17.199219 L 18.046875 -17.199219 L 18.046875 -11.367188 L 26.582031 -11.367188 C 25.1875 -7.691406 21.679688 -5.746094 17.878906 -5.746094 C 12.59375 -5.746094 8.410156 -10.183594 8.410156 -15.722656 C 8.410156 -21.300781 12.59375 -25.78125 17.878906 -25.78125 C 21.597656 -25.78125 24.851562 -23.667969 26.5 -20.582031 L 31.738281 -24.386719 C 28.90625 -28.992188 23.710938 -32.035156 17.835938 -32.035156 C 8.875 -32.035156 1.691406 -24.722656 1.691406 -15.722656 C 1.691406 -6.71875 8.875 0.550781 17.878906 0.550781 C 26.921875 0.550781 34.191406 -6.929688 34.191406 -16.230469 Z M 34.191406 -17.199219 "/></g></g></g><g fill="#fff5ec" fill-opacity="1"><g transform="translate(300.263973, 50.523749)"><g><path d="M 16.3125 0.550781 C 24.679688 0.550781 29.796875 -4.859375 29.796875 -14.03125 L 29.796875 -31.484375 L 23.328125 -31.484375 L 23.328125 -13.480469 C 23.328125 -8.75 21.214844 -5.746094 16.3125 -5.746094 C 11.664062 -5.746094 9.253906 -8.535156 9.253906 -13.480469 L 9.253906 -31.484375 L 2.703125 -31.484375 L 2.703125 -14.582031 C 2.703125 -5.832031 7.101562 0.550781 16.3125 0.550781 Z M 16.3125 0.550781 "/></g></g></g><g fill="#fff5ec" fill-opacity="1"><g transform="translate(332.760248, 50.523749)"><g><path d="M 25.863281 0 L 33.007812 0 L 16.355469 -32.035156 L -0.253906 0 L 6.507812 0 L 8.535156 -4.226562 L 23.792969 -4.226562 Z M 16.101562 -19.949219 L 20.921875 -10.144531 L 11.367188 -10.144531 Z M 16.101562 -19.949219 "/></g></g></g><g fill="#fff5ec" fill-opacity="1"><g transform="translate(365.510078, 50.523749)"><g><path d="M 34.191406 -17.199219 L 18.046875 -17.199219 L 18.046875 -11.367188 L 26.582031 -11.367188 C 25.1875 -7.691406 21.679688 -5.746094 17.878906 -5.746094 C 12.59375 -5.746094 8.410156 -10.183594 8.410156 -15.722656 C 8.410156 -21.300781 12.59375 -25.78125 17.878906 -25.78125 C 21.597656 -25.78125 24.851562 -23.667969 26.5 -20.582031 L 31.738281 -24.386719 C 28.90625 -28.992188 23.710938 -32.035156 17.835938 -32.035156 C 8.875 -32.035156 1.691406 -24.722656 1.691406 -15.722656 C 1.691406 -6.71875 8.875 0.550781 17.878906 0.550781 C 26.921875 0.550781 34.191406 -6.929688 34.191406 -16.230469 Z M 34.191406 -17.199219 "/></g></g></g><g fill="#fff5ec" fill-opacity="1"><g transform="translate(401.30248, 50.523749)"><g><path d="M 22.527344 0 L 22.527344 -5.917969 L 9.550781 -5.917969 L 9.550781 -13.820312 L 21.386719 -13.820312 L 21.386719 -19.695312 L 9.550781 -19.695312 L 9.550781 -25.570312 L 19.738281 -25.570312 L 19.738281 -31.484375 L 3 -31.484375 L 3 0 Z M 22.527344 0 "/></g></g></g><g fill="#fff5ec" fill-opacity="1"><g transform="translate(78.246133, 109.023746)"><g><path d="M 15.128906 0 L 15.128906 -25.570312 L 23.414062 -25.570312 L 23.414062 -31.484375 L 0.804688 -31.484375 L 0.804688 -25.570312 L 8.578125 -25.570312 L 8.578125 0 Z M 15.128906 0 "/></g></g></g><g fill="#fff5ec" fill-opacity="1"><g transform="translate(102.459873, 109.023746)"><g><path d="M 12.847656 -5.453125 L 18.003906 0 L 26.710938 0 L 19.90625 -7.269531 C 24.300781 -9.296875 27.003906 -13.441406 27.003906 -19.101562 C 27.003906 -25.949219 21.34375 -31.484375 13.945312 -31.484375 L 3 -31.484375 L 3 0 L 9.550781 0 L 9.550781 -5.453125 Z M 9.550781 -11.367188 L 9.550781 -25.570312 L 13.523438 -25.570312 C 18.003906 -25.570312 20.285156 -22.441406 20.285156 -18.59375 C 20.285156 -13.90625 17.453125 -11.367188 12.257812 -11.367188 Z M 9.550781 -11.367188 "/></g></g></g><g fill="#fff5ec" fill-opacity="1"><g transform="translate(130.983916, 109.023746)"><g><path d="M 25.863281 0 L 33.007812 0 L 16.355469 -32.035156 L -0.253906 0 L 6.507812 0 L 8.535156 -4.226562 L 23.792969 -4.226562 Z M 16.101562 -19.949219 L 20.921875 -10.144531 L 11.367188 -10.144531 Z M 16.101562 -19.949219 "/></g></g></g><g fill="#fff5ec" fill-opacity="1"><g transform="translate(163.733746, 109.023746)"><g><path d="M 25.398438 -13.269531 L 3 -32.078125 L 3 0 L 9.550781 0 L 9.550781 -18.089844 L 31.949219 0.550781 L 31.949219 -31.484375 L 25.398438 -31.484375 Z M 25.398438 -13.269531 "/></g></g></g><g fill="#fff5ec" fill-opacity="1"><g transform="translate(198.680979, 109.023746)"><g><path d="M 10.566406 -13.945312 C 13.609375 -13.609375 15.300781 -12.042969 15.300781 -9.507812 C 15.300781 -7.480469 13.609375 -5.746094 11.453125 -5.746094 C 9.59375 -5.746094 8.113281 -6.210938 6.675781 -8.03125 L 1.269531 -4.058594 C 4.269531 -0.761719 7.859375 0.550781 11.453125 0.550781 C 16.988281 0.550781 22.101562 -3.847656 22.101562 -9.972656 C 22.101562 -16.058594 17.664062 -19.695312 12.296875 -20.03125 C 8.960938 -20.242188 7.902344 -21.554688 7.902344 -22.992188 C 7.902344 -24.722656 9.085938 -25.78125 10.820312 -25.78125 C 11.917969 -25.78125 13.3125 -25.105469 14.15625 -24.214844 L 19.3125 -27.976562 C 16.90625 -30.851562 13.945312 -32.035156 10.820312 -32.035156 C 6.464844 -32.035156 1.5625 -28.273438 1.5625 -22.949219 C 1.5625 -18.003906 5.113281 -14.582031 10.566406 -13.945312 Z M 10.566406 -13.945312 "/></g></g></g><g fill="#fff5ec" fill-opacity="1"><g transform="translate(222.176338, 109.023746)"><g><path d="M 3 -31.484375 L 3 0 L 22.230469 0 L 22.230469 -5.917969 L 9.550781 -5.917969 L 9.550781 -31.484375 Z M 3 -31.484375 "/></g></g></g><g fill="#fff5ec" fill-opacity="1"><g transform="translate(245.037833, 109.023746)"><g><path d="M 25.863281 0 L 33.007812 0 L 16.355469 -32.035156 L -0.253906 0 L 6.507812 0 L 8.535156 -4.226562 L 23.792969 -4.226562 Z M 16.101562 -19.949219 L 20.921875 -10.144531 L 11.367188 -10.144531 Z M 16.101562 -19.949219 "/></g></g></g><g fill="#fff5ec" fill-opacity="1"><g transform="translate(277.787664, 109.023746)"><g><path d="M 15.128906 0 L 15.128906 -25.570312 L 23.414062 -25.570312 L 23.414062 -31.484375 L 0.804688 -31.484375 L 0.804688 -25.570312 L 8.578125 -25.570312 L 8.578125 0 Z M 15.128906 0 "/></g></g></g><g fill="#fff5ec" fill-opacity="1"><g transform="translate(302.001415, 109.023746)"><g><path d="M 18.003906 0.550781 C 27.003906 0.550781 34.273438 -6.761719 34.273438 -15.765625 C 34.273438 -24.765625 27.003906 -32.035156 17.960938 -32.035156 C 8.960938 -32.035156 1.691406 -24.765625 1.691406 -15.765625 C 1.691406 -6.761719 8.960938 0.550781 18.003906 0.550781 Z M 17.960938 -25.78125 C 23.285156 -25.78125 27.554688 -21.300781 27.554688 -15.765625 C 27.554688 -10.144531 23.328125 -5.746094 18.003906 -5.746094 C 12.59375 -5.746094 8.410156 -10.144531 8.410156 -15.765625 C 8.410156 -21.300781 12.59375 -25.78125 17.960938 -25.78125 Z M 17.960938 -25.78125 "/></g></g></g><g fill="#fff5ec" fill-opacity="1"><g transform="translate(337.962823, 109.023746)"><g><path d="M 12.847656 -5.453125 L 18.003906 0 L 26.710938 0 L 19.90625 -7.269531 C 24.300781 -9.296875 27.003906 -13.441406 27.003906 -19.101562 C 27.003906 -25.949219 21.34375 -31.484375 13.945312 -31.484375 L 3 -31.484375 L 3 0 L 9.550781 0 L 9.550781 -5.453125 Z M 9.550781 -11.367188 L 9.550781 -25.570312 L 13.523438 -25.570312 C 18.003906 -25.570312 20.285156 -22.441406 20.285156 -18.59375 C 20.285156 -13.90625 17.453125 -11.367188 12.257812 -11.367188 Z M 9.550781 -11.367188 "/></g></g></g></svg>