<svg xmlns="http://www.w3.org/2000/svg" xmlns:xlink="http://www.w3.org/1999/xlink" width="1280" zoomAndPan="magnify" viewBox="0 0 960 67.499998" height="90" preserveAspectRatio="xMidYMid meet" version="1.0"><defs><g/><clipPath id="id1"><path d="M 3.53125 0 L 956.46875 0 L 956.46875 67.003906 L 3.53125 67.003906 Z M 3.53125 0 " clip-rule="nonzero"/></clipPath></defs><g clip-path="url(#id1)"><path fill="#ffffff" d="M 3.53125 0 L 956.46875 0 L 956.46875 74.449219 L 3.53125 74.449219 Z M 3.53125 0 " fill-opacity="1" fill-rule="nonzero"/><path fill="#ffffff" d="M 3.53125 0 L 956.46875 0 L 956.46875 67.003906 L 3.53125 67.003906 Z M 3.53125 0 " fill-opacity="1" fill-rule="nonzero"/><path fill="#ff5757" d="M 3.53125 0 L 956.46875 0 L 956.46875 67.003906 L 3.53125 67.003906 Z M 3.53125 0 " fill-opacity="1" fill-rule="nonzero"/></g><g fill="#faf6f6" fill-opacity="1"><g transform="translate(312.851411, 46.158085)"><g><path d="M 7.5625 0.25 C 5.125 0.25 3.363281 -0.351562 2.28125 -1.5625 C 1.195312 -2.769531 0.65625 -4.71875 0.65625 -7.40625 L 0.65625 -10.03125 L 5.9375 -10.03125 L 5.9375 -6.6875 C 5.9375 -5.351562 6.363281 -4.6875 7.21875 -4.6875 C 7.695312 -4.6875 8.03125 -4.828125 8.21875 -5.109375 C 8.40625 -5.390625 8.5 -5.863281 8.5 -6.53125 C 8.5 -7.40625 8.394531 -8.128906 8.1875 -8.703125 C 7.976562 -9.273438 7.710938 -9.753906 7.390625 -10.140625 C 7.066406 -10.523438 6.488281 -11.125 5.65625 -11.9375 L 3.34375 -14.25 C 1.550781 -16.007812 0.65625 -17.953125 0.65625 -20.078125 C 0.65625 -22.367188 1.179688 -24.113281 2.234375 -25.3125 C 3.285156 -26.507812 4.820312 -27.109375 6.84375 -27.109375 C 9.257812 -27.109375 11 -26.46875 12.0625 -25.1875 C 13.125 -23.90625 13.65625 -21.898438 13.65625 -19.171875 L 8.1875 -19.171875 L 8.15625 -21.015625 C 8.15625 -21.367188 8.054688 -21.648438 7.859375 -21.859375 C 7.660156 -22.066406 7.382812 -22.171875 7.03125 -22.171875 C 6.613281 -22.171875 6.300781 -22.054688 6.09375 -21.828125 C 5.882812 -21.597656 5.78125 -21.285156 5.78125 -20.890625 C 5.78125 -20.015625 6.28125 -19.109375 7.28125 -18.171875 L 10.40625 -15.15625 C 11.132812 -14.445312 11.738281 -13.773438 12.21875 -13.140625 C 12.695312 -12.503906 13.082031 -11.753906 13.375 -10.890625 C 13.664062 -10.023438 13.8125 -9 13.8125 -7.8125 C 13.8125 -5.164062 13.328125 -3.160156 12.359375 -1.796875 C 11.390625 -0.429688 9.789062 0.25 7.5625 0.25 Z M 7.5625 0.25 "/></g></g></g><g fill="#faf6f6" fill-opacity="1"><g transform="translate(327.266156, 46.158085)"><g><path d="M 5.5 0.25 C 3.789062 0.25 2.617188 -0.257812 1.984375 -1.28125 C 1.347656 -2.300781 1.03125 -3.820312 1.03125 -5.84375 L 1.03125 -22.890625 L 6.53125 -22.890625 L 6.53125 -6.9375 C 6.53125 -6.789062 6.53125 -6.398438 6.53125 -5.765625 C 6.53125 -5.128906 6.628906 -4.679688 6.828125 -4.421875 C 7.023438 -4.160156 7.332031 -4.03125 7.75 -4.03125 C 8.3125 -4.03125 8.664062 -4.265625 8.8125 -4.734375 C 8.957031 -5.203125 9.03125 -5.875 9.03125 -6.75 L 9.03125 -6.9375 L 9.0625 -22.890625 L 14.5 -22.890625 L 14.5 0 L 9.03125 0 L 9.03125 -2.4375 C 8.65625 -1.476562 8.21875 -0.789062 7.71875 -0.375 C 7.21875 0.0390625 6.476562 0.25 5.5 0.25 Z M 5.5 0.25 "/></g></g></g><g fill="#faf6f6" fill-opacity="1"><g transform="translate(342.869095, 46.158085)"><g><path d="M 1.09375 -22.890625 L 6.65625 -22.890625 L 6.65625 -21.671875 C 7.445312 -22.648438 8.539062 -23.140625 9.9375 -23.140625 C 11.707031 -23.140625 12.941406 -22.546875 13.640625 -21.359375 C 14.335938 -20.171875 14.6875 -18.523438 14.6875 -16.421875 L 14.6875 -7.9375 C 14.6875 -6.144531 14.582031 -4.679688 14.375 -3.546875 C 14.164062 -2.410156 13.707031 -1.492188 13 -0.796875 C 12.289062 -0.0976562 11.21875 0.25 9.78125 0.25 C 8.40625 0.25 7.363281 -0.132812 6.65625 -0.90625 L 6.65625 4.5625 L 1.09375 4.5625 Z M 7.96875 -4 C 8.46875 -4 8.789062 -4.226562 8.9375 -4.6875 C 9.082031 -5.144531 9.15625 -5.8125 9.15625 -6.6875 L 9.15625 -16.421875 C 9.15625 -17.210938 9.082031 -17.816406 8.9375 -18.234375 C 8.789062 -18.648438 8.457031 -18.859375 7.9375 -18.859375 C 7.082031 -18.859375 6.65625 -18.066406 6.65625 -16.484375 L 6.65625 -6.4375 C 6.65625 -5.664062 6.742188 -5.066406 6.921875 -4.640625 C 7.097656 -4.210938 7.445312 -4 7.96875 -4 Z M 7.96875 -4 "/></g></g></g><g fill="#faf6f6" fill-opacity="1"><g transform="translate(358.503308, 46.158085)"><g><path d="M 7.5 0.25 C 5.144531 0.25 3.457031 -0.394531 2.4375 -1.6875 C 1.414062 -2.976562 0.90625 -4.90625 0.90625 -7.46875 L 0.90625 -16.671875 C 0.90625 -18.773438 1.507812 -20.378906 2.71875 -21.484375 C 3.925781 -22.585938 5.613281 -23.140625 7.78125 -23.140625 C 12.175781 -23.140625 14.375 -20.984375 14.375 -16.671875 L 14.375 -15 C 14.375 -13.332031 14.351562 -11.976562 14.3125 -10.9375 L 6.375 -10.9375 L 6.375 -6.5 C 6.375 -5.707031 6.457031 -5.085938 6.625 -4.640625 C 6.789062 -4.191406 7.144531 -3.96875 7.6875 -3.96875 C 8.101562 -3.96875 8.398438 -4.09375 8.578125 -4.34375 C 8.753906 -4.59375 8.859375 -4.878906 8.890625 -5.203125 C 8.921875 -5.523438 8.9375 -6 8.9375 -6.625 L 8.9375 -8.84375 L 14.375 -8.84375 L 14.375 -7.53125 C 14.375 -4.863281 13.859375 -2.898438 12.828125 -1.640625 C 11.796875 -0.378906 10.019531 0.25 7.5 0.25 Z M 8.9375 -13.65625 L 8.9375 -16.609375 C 8.9375 -18.253906 8.53125 -19.078125 7.71875 -19.078125 C 6.800781 -19.078125 6.34375 -18.253906 6.34375 -16.609375 L 6.34375 -13.65625 Z M 8.9375 -13.65625 "/></g></g></g><g fill="#faf6f6" fill-opacity="1"><g transform="translate(373.762302, 46.158085)"><g><path d="M 1.09375 -22.890625 L 6.5625 -22.890625 L 6.5625 -20.359375 C 6.832031 -21.253906 7.304688 -21.945312 7.984375 -22.4375 C 8.660156 -22.925781 9.5 -23.171875 10.5 -23.171875 L 10.5 -18.609375 C 9.726562 -18.609375 8.878906 -18.5 7.953125 -18.28125 C 7.023438 -18.0625 6.5625 -17.804688 6.5625 -17.515625 L 6.5625 0 L 1.09375 0 Z M 1.09375 -22.890625 "/></g></g></g><g fill="#faf6f6" fill-opacity="1"><g transform="translate(384.518635, 46.158085)"><g/></g></g><g fill="#faf6f6" fill-opacity="1"><g transform="translate(391.835449, 46.158085)"><g><path d="M 1.1875 0 L 1.1875 -26.859375 L 6.5625 -26.859375 L 6.5625 -4.5625 L 12.09375 -4.5625 L 12.09375 0 Z M 1.1875 0 "/></g></g></g><g fill="#faf6f6" fill-opacity="1"><g transform="translate(404.249016, 46.158085)"><g><path d="M 5.25 0.25 C 3.476562 0.25 2.265625 -0.335938 1.609375 -1.515625 C 0.953125 -2.691406 0.625 -4.375 0.625 -6.5625 C 0.625 -8.351562 0.859375 -9.726562 1.328125 -10.6875 C 1.796875 -11.644531 2.445312 -12.347656 3.28125 -12.796875 C 4.113281 -13.242188 5.382812 -13.738281 7.09375 -14.28125 L 8.59375 -14.78125 L 8.59375 -17.140625 C 8.59375 -17.742188 8.472656 -18.207031 8.234375 -18.53125 C 7.992188 -18.851562 7.707031 -19.015625 7.375 -19.015625 C 7.082031 -19.015625 6.828125 -18.878906 6.609375 -18.609375 C 6.390625 -18.335938 6.28125 -17.972656 6.28125 -17.515625 L 6.28125 -16.140625 L 0.96875 -16.140625 L 0.96875 -16.890625 C 0.96875 -19.140625 1.492188 -20.742188 2.546875 -21.703125 C 3.597656 -22.660156 5.3125 -23.140625 7.6875 -23.140625 C 9.582031 -23.140625 11.125 -22.644531 12.3125 -21.65625 C 13.5 -20.664062 14.09375 -19.265625 14.09375 -17.453125 L 14.09375 0 L 8.65625 0 L 8.65625 -2.71875 C 8.382812 -1.78125 7.953125 -1.050781 7.359375 -0.53125 C 6.765625 -0.0078125 6.0625 0.25 5.25 0.25 Z M 7.40625 -4 C 7.820312 -4 8.117188 -4.171875 8.296875 -4.515625 C 8.472656 -4.859375 8.5625 -5.28125 8.5625 -5.78125 L 8.5625 -12.15625 C 7.75 -11.84375 7.148438 -11.445312 6.765625 -10.96875 C 6.378906 -10.488281 6.1875 -9.820312 6.1875 -8.96875 L 6.1875 -6.03125 C 6.1875 -4.675781 6.59375 -4 7.40625 -4 Z M 7.40625 -4 "/></g></g></g><g fill="#faf6f6" fill-opacity="1"><g transform="translate(419.351663, 46.158085)"><g><path d="M 1.09375 -22.890625 L 6.5625 -22.890625 L 6.5625 -19.984375 C 6.789062 -20.921875 7.1875 -21.679688 7.75 -22.265625 C 8.3125 -22.847656 9.0625 -23.140625 10 -23.140625 C 11.539062 -23.140625 12.679688 -22.664062 13.421875 -21.71875 C 14.160156 -20.769531 14.53125 -19.421875 14.53125 -17.671875 L 14.53125 0 L 9.15625 0 L 9.15625 -17.109375 C 9.15625 -17.609375 9.054688 -18.035156 8.859375 -18.390625 C 8.660156 -18.742188 8.351562 -18.921875 7.9375 -18.921875 C 7.375 -18.921875 7.003906 -18.664062 6.828125 -18.15625 C 6.648438 -17.644531 6.5625 -16.960938 6.5625 -16.109375 L 6.5625 0 L 1.09375 0 Z M 1.09375 -22.890625 "/></g></g></g><g fill="#faf6f6" fill-opacity="1"><g transform="translate(434.954602, 46.158085)"><g><path d="M 7.25 3.34375 C 5.625 3.34375 4.347656 3.210938 3.421875 2.953125 C 2.492188 2.691406 1.582031 2.195312 0.6875 1.46875 L 2.5625 -1.6875 C 3.894531 -0.894531 5.21875 -0.5 6.53125 -0.5 C 7.382812 -0.5 8.03125 -0.769531 8.46875 -1.3125 C 8.90625 -1.851562 9.125 -2.59375 9.125 -3.53125 L 9.125 -4.78125 C 8.6875 -3.21875 7.53125 -2.4375 5.65625 -2.4375 C 4.09375 -2.4375 2.941406 -2.96875 2.203125 -4.03125 C 1.460938 -5.09375 1.09375 -6.507812 1.09375 -8.28125 L 1.09375 -16.890625 C 1.09375 -18.910156 1.429688 -20.457031 2.109375 -21.53125 C 2.785156 -22.601562 3.96875 -23.140625 5.65625 -23.140625 C 6.632812 -23.140625 7.410156 -22.894531 7.984375 -22.40625 C 8.554688 -21.914062 8.9375 -21.222656 9.125 -20.328125 L 9.125 -22.890625 L 14.71875 -22.890625 L 14.71875 -3.875 C 14.71875 -1.3125 14.125 0.53125 12.9375 1.65625 C 11.75 2.78125 9.851562 3.34375 7.25 3.34375 Z M 7.84375 -6.5625 C 8.695312 -6.5625 9.125 -7.332031 9.125 -8.875 L 9.125 -17.046875 C 9.125 -17.503906 9 -17.941406 8.75 -18.359375 C 8.5 -18.773438 8.1875 -18.984375 7.8125 -18.984375 C 7.332031 -18.984375 7.007812 -18.8125 6.84375 -18.46875 C 6.675781 -18.125 6.59375 -17.648438 6.59375 -17.046875 L 6.59375 -8.875 C 6.59375 -8.1875 6.675781 -7.628906 6.84375 -7.203125 C 7.007812 -6.773438 7.34375 -6.5625 7.84375 -6.5625 Z M 7.84375 -6.5625 "/></g></g></g><g fill="#faf6f6" fill-opacity="1"><g transform="translate(450.713888, 46.158085)"><g><path d="M 5.5 0.25 C 3.789062 0.25 2.617188 -0.257812 1.984375 -1.28125 C 1.347656 -2.300781 1.03125 -3.820312 1.03125 -5.84375 L 1.03125 -22.890625 L 6.53125 -22.890625 L 6.53125 -6.9375 C 6.53125 -6.789062 6.53125 -6.398438 6.53125 -5.765625 C 6.53125 -5.128906 6.628906 -4.679688 6.828125 -4.421875 C 7.023438 -4.160156 7.332031 -4.03125 7.75 -4.03125 C 8.3125 -4.03125 8.664062 -4.265625 8.8125 -4.734375 C 8.957031 -5.203125 9.03125 -5.875 9.03125 -6.75 L 9.03125 -6.9375 L 9.0625 -22.890625 L 14.5 -22.890625 L 14.5 0 L 9.03125 0 L 9.03125 -2.4375 C 8.65625 -1.476562 8.21875 -0.789062 7.71875 -0.375 C 7.21875 0.0390625 6.476562 0.25 5.5 0.25 Z M 5.5 0.25 "/></g></g></g><g fill="#faf6f6" fill-opacity="1"><g transform="translate(466.316826, 46.158085)"><g><path d="M 5.25 0.25 C 3.476562 0.25 2.265625 -0.335938 1.609375 -1.515625 C 0.953125 -2.691406 0.625 -4.375 0.625 -6.5625 C 0.625 -8.351562 0.859375 -9.726562 1.328125 -10.6875 C 1.796875 -11.644531 2.445312 -12.347656 3.28125 -12.796875 C 4.113281 -13.242188 5.382812 -13.738281 7.09375 -14.28125 L 8.59375 -14.78125 L 8.59375 -17.140625 C 8.59375 -17.742188 8.472656 -18.207031 8.234375 -18.53125 C 7.992188 -18.851562 7.707031 -19.015625 7.375 -19.015625 C 7.082031 -19.015625 6.828125 -18.878906 6.609375 -18.609375 C 6.390625 -18.335938 6.28125 -17.972656 6.28125 -17.515625 L 6.28125 -16.140625 L 0.96875 -16.140625 L 0.96875 -16.890625 C 0.96875 -19.140625 1.492188 -20.742188 2.546875 -21.703125 C 3.597656 -22.660156 5.3125 -23.140625 7.6875 -23.140625 C 9.582031 -23.140625 11.125 -22.644531 12.3125 -21.65625 C 13.5 -20.664062 14.09375 -19.265625 14.09375 -17.453125 L 14.09375 0 L 8.65625 0 L 8.65625 -2.71875 C 8.382812 -1.78125 7.953125 -1.050781 7.359375 -0.53125 C 6.765625 -0.0078125 6.0625 0.25 5.25 0.25 Z M 7.40625 -4 C 7.820312 -4 8.117188 -4.171875 8.296875 -4.515625 C 8.472656 -4.859375 8.5625 -5.28125 8.5625 -5.78125 L 8.5625 -12.15625 C 7.75 -11.84375 7.148438 -11.445312 6.765625 -10.96875 C 6.378906 -10.488281 6.1875 -9.820312 6.1875 -8.96875 L 6.1875 -6.03125 C 6.1875 -4.675781 6.59375 -4 7.40625 -4 Z M 7.40625 -4 "/></g></g></g><g fill="#faf6f6" fill-opacity="1"><g transform="translate(481.419473, 46.158085)"><g><path d="M 7.25 3.34375 C 5.625 3.34375 4.347656 3.210938 3.421875 2.953125 C 2.492188 2.691406 1.582031 2.195312 0.6875 1.46875 L 2.5625 -1.6875 C 3.894531 -0.894531 5.21875 -0.5 6.53125 -0.5 C 7.382812 -0.5 8.03125 -0.769531 8.46875 -1.3125 C 8.90625 -1.851562 9.125 -2.59375 9.125 -3.53125 L 9.125 -4.78125 C 8.6875 -3.21875 7.53125 -2.4375 5.65625 -2.4375 C 4.09375 -2.4375 2.941406 -2.96875 2.203125 -4.03125 C 1.460938 -5.09375 1.09375 -6.507812 1.09375 -8.28125 L 1.09375 -16.890625 C 1.09375 -18.910156 1.429688 -20.457031 2.109375 -21.53125 C 2.785156 -22.601562 3.96875 -23.140625 5.65625 -23.140625 C 6.632812 -23.140625 7.410156 -22.894531 7.984375 -22.40625 C 8.554688 -21.914062 8.9375 -21.222656 9.125 -20.328125 L 9.125 -22.890625 L 14.71875 -22.890625 L 14.71875 -3.875 C 14.71875 -1.3125 14.125 0.53125 12.9375 1.65625 C 11.75 2.78125 9.851562 3.34375 7.25 3.34375 Z M 7.84375 -6.5625 C 8.695312 -6.5625 9.125 -7.332031 9.125 -8.875 L 9.125 -17.046875 C 9.125 -17.503906 9 -17.941406 8.75 -18.359375 C 8.5 -18.773438 8.1875 -18.984375 7.8125 -18.984375 C 7.332031 -18.984375 7.007812 -18.8125 6.84375 -18.46875 C 6.675781 -18.125 6.59375 -17.648438 6.59375 -17.046875 L 6.59375 -8.875 C 6.59375 -8.1875 6.675781 -7.628906 6.84375 -7.203125 C 7.007812 -6.773438 7.34375 -6.5625 7.84375 -6.5625 Z M 7.84375 -6.5625 "/></g></g></g><g fill="#faf6f6" fill-opacity="1"><g transform="translate(497.178759, 46.158085)"><g><path d="M 7.5 0.25 C 5.144531 0.25 3.457031 -0.394531 2.4375 -1.6875 C 1.414062 -2.976562 0.90625 -4.90625 0.90625 -7.46875 L 0.90625 -16.671875 C 0.90625 -18.773438 1.507812 -20.378906 2.71875 -21.484375 C 3.925781 -22.585938 5.613281 -23.140625 7.78125 -23.140625 C 12.175781 -23.140625 14.375 -20.984375 14.375 -16.671875 L 14.375 -15 C 14.375 -13.332031 14.351562 -11.976562 14.3125 -10.9375 L 6.375 -10.9375 L 6.375 -6.5 C 6.375 -5.707031 6.457031 -5.085938 6.625 -4.640625 C 6.789062 -4.191406 7.144531 -3.96875 7.6875 -3.96875 C 8.101562 -3.96875 8.398438 -4.09375 8.578125 -4.34375 C 8.753906 -4.59375 8.859375 -4.878906 8.890625 -5.203125 C 8.921875 -5.523438 8.9375 -6 8.9375 -6.625 L 8.9375 -8.84375 L 14.375 -8.84375 L 14.375 -7.53125 C 14.375 -4.863281 13.859375 -2.898438 12.828125 -1.640625 C 11.796875 -0.378906 10.019531 0.25 7.5 0.25 Z M 8.9375 -13.65625 L 8.9375 -16.609375 C 8.9375 -18.253906 8.53125 -19.078125 7.71875 -19.078125 C 6.800781 -19.078125 6.34375 -18.253906 6.34375 -16.609375 L 6.34375 -13.65625 Z M 8.9375 -13.65625 "/></g></g></g><g fill="#faf6f6" fill-opacity="1"><g transform="translate(512.437753, 46.158085)"><g/></g></g><g fill="#faf6f6" fill-opacity="1"><g transform="translate(519.754556, 46.158085)"><g><path d="M 3.5 0 L 3.5 -21.703125 L 0.3125 -21.703125 L 0.3125 -26.859375 L 12.0625 -26.859375 L 12.0625 -21.703125 L 8.875 -21.703125 L 8.875 0 Z M 3.5 0 "/></g></g></g><g fill="#faf6f6" fill-opacity="1"><g transform="translate(532.136849, 46.158085)"><g><path d="M 1.09375 -22.890625 L 6.5625 -22.890625 L 6.5625 -20.359375 C 6.832031 -21.253906 7.304688 -21.945312 7.984375 -22.4375 C 8.660156 -22.925781 9.5 -23.171875 10.5 -23.171875 L 10.5 -18.609375 C 9.726562 -18.609375 8.878906 -18.5 7.953125 -18.28125 C 7.023438 -18.0625 6.5625 -17.804688 6.5625 -17.515625 L 6.5625 0 L 1.09375 0 Z M 1.09375 -22.890625 "/></g></g></g><g fill="#faf6f6" fill-opacity="1"><g transform="translate(542.89317, 46.158085)"><g><path d="M 5.25 0.25 C 3.476562 0.25 2.265625 -0.335938 1.609375 -1.515625 C 0.953125 -2.691406 0.625 -4.375 0.625 -6.5625 C 0.625 -8.351562 0.859375 -9.726562 1.328125 -10.6875 C 1.796875 -11.644531 2.445312 -12.347656 3.28125 -12.796875 C 4.113281 -13.242188 5.382812 -13.738281 7.09375 -14.28125 L 8.59375 -14.78125 L 8.59375 -17.140625 C 8.59375 -17.742188 8.472656 -18.207031 8.234375 -18.53125 C 7.992188 -18.851562 7.707031 -19.015625 7.375 -19.015625 C 7.082031 -19.015625 6.828125 -18.878906 6.609375 -18.609375 C 6.390625 -18.335938 6.28125 -17.972656 6.28125 -17.515625 L 6.28125 -16.140625 L 0.96875 -16.140625 L 0.96875 -16.890625 C 0.96875 -19.140625 1.492188 -20.742188 2.546875 -21.703125 C 3.597656 -22.660156 5.3125 -23.140625 7.6875 -23.140625 C 9.582031 -23.140625 11.125 -22.644531 12.3125 -21.65625 C 13.5 -20.664062 14.09375 -19.265625 14.09375 -17.453125 L 14.09375 0 L 8.65625 0 L 8.65625 -2.71875 C 8.382812 -1.78125 7.953125 -1.050781 7.359375 -0.53125 C 6.765625 -0.0078125 6.0625 0.25 5.25 0.25 Z M 7.40625 -4 C 7.820312 -4 8.117188 -4.171875 8.296875 -4.515625 C 8.472656 -4.859375 8.5625 -5.28125 8.5625 -5.78125 L 8.5625 -12.15625 C 7.75 -11.84375 7.148438 -11.445312 6.765625 -10.96875 C 6.378906 -10.488281 6.1875 -9.820312 6.1875 -8.96875 L 6.1875 -6.03125 C 6.1875 -4.675781 6.59375 -4 7.40625 -4 Z M 7.40625 -4 "/></g></g></g><g fill="#faf6f6" fill-opacity="1"><g transform="translate(557.995806, 46.158085)"><g><path d="M 1.09375 -22.890625 L 6.5625 -22.890625 L 6.5625 -19.984375 C 6.789062 -20.921875 7.1875 -21.679688 7.75 -22.265625 C 8.3125 -22.847656 9.0625 -23.140625 10 -23.140625 C 11.539062 -23.140625 12.679688 -22.664062 13.421875 -21.71875 C 14.160156 -20.769531 14.53125 -19.421875 14.53125 -17.671875 L 14.53125 0 L 9.15625 0 L 9.15625 -17.109375 C 9.15625 -17.609375 9.054688 -18.035156 8.859375 -18.390625 C 8.660156 -18.742188 8.351562 -18.921875 7.9375 -18.921875 C 7.375 -18.921875 7.003906 -18.664062 6.828125 -18.15625 C 6.648438 -17.644531 6.5625 -16.960938 6.5625 -16.109375 L 6.5625 0 L 1.09375 0 Z M 1.09375 -22.890625 "/></g></g></g><g fill="#faf6f6" fill-opacity="1"><g transform="translate(573.598734, 46.158085)"><g><path d="M 7.375 0.25 C 2.851562 0.25 0.59375 -2.039062 0.59375 -6.625 L 0.625 -8.4375 L 6.09375 -8.4375 L 6.125 -5.75 C 6.125 -5.207031 6.226562 -4.796875 6.4375 -4.515625 C 6.644531 -4.234375 6.988281 -4.09375 7.46875 -4.09375 C 8.195312 -4.09375 8.5625 -4.6875 8.5625 -5.875 C 8.5625 -6.75 8.390625 -7.4375 8.046875 -7.9375 C 7.703125 -8.4375 7.15625 -8.96875 6.40625 -9.53125 L 3.5 -11.78125 C 2.5 -12.550781 1.78125 -13.347656 1.34375 -14.171875 C 0.90625 -14.992188 0.6875 -16.160156 0.6875 -17.671875 C 0.6875 -18.835938 0.992188 -19.832031 1.609375 -20.65625 C 2.222656 -21.476562 3.039062 -22.097656 4.0625 -22.515625 C 5.082031 -22.929688 6.21875 -23.140625 7.46875 -23.140625 C 11.90625 -23.140625 14.125 -20.929688 14.125 -16.515625 L 14.125 -16.078125 L 8.46875 -16.078125 L 8.46875 -16.953125 C 8.46875 -17.492188 8.378906 -17.957031 8.203125 -18.34375 C 8.023438 -18.726562 7.726562 -18.921875 7.3125 -18.921875 C 6.9375 -18.921875 6.648438 -18.8125 6.453125 -18.59375 C 6.253906 -18.375 6.15625 -18.078125 6.15625 -17.703125 C 6.15625 -16.867188 6.476562 -16.222656 7.125 -15.765625 L 10.5 -13.28125 C 11.707031 -12.382812 12.632812 -11.410156 13.28125 -10.359375 C 13.925781 -9.304688 14.25 -7.976562 14.25 -6.375 C 14.25 -4.25 13.644531 -2.613281 12.4375 -1.46875 C 11.226562 -0.320312 9.539062 0.25 7.375 0.25 Z M 7.375 0.25 "/></g></g></g><g fill="#faf6f6" fill-opacity="1"><g transform="translate(588.451223, 46.158085)"><g><path d="M 1.09375 0 L 1.09375 -27.015625 L 6.65625 -27.015625 L 6.65625 0 Z M 1.09375 0 "/></g></g></g><g fill="#faf6f6" fill-opacity="1"><g transform="translate(596.205793, 46.158085)"><g><path d="M 5.25 0.25 C 3.476562 0.25 2.265625 -0.335938 1.609375 -1.515625 C 0.953125 -2.691406 0.625 -4.375 0.625 -6.5625 C 0.625 -8.351562 0.859375 -9.726562 1.328125 -10.6875 C 1.796875 -11.644531 2.445312 -12.347656 3.28125 -12.796875 C 4.113281 -13.242188 5.382812 -13.738281 7.09375 -14.28125 L 8.59375 -14.78125 L 8.59375 -17.140625 C 8.59375 -17.742188 8.472656 -18.207031 8.234375 -18.53125 C 7.992188 -18.851562 7.707031 -19.015625 7.375 -19.015625 C 7.082031 -19.015625 6.828125 -18.878906 6.609375 -18.609375 C 6.390625 -18.335938 6.28125 -17.972656 6.28125 -17.515625 L 6.28125 -16.140625 L 0.96875 -16.140625 L 0.96875 -16.890625 C 0.96875 -19.140625 1.492188 -20.742188 2.546875 -21.703125 C 3.597656 -22.660156 5.3125 -23.140625 7.6875 -23.140625 C 9.582031 -23.140625 11.125 -22.644531 12.3125 -21.65625 C 13.5 -20.664062 14.09375 -19.265625 14.09375 -17.453125 L 14.09375 0 L 8.65625 0 L 8.65625 -2.71875 C 8.382812 -1.78125 7.953125 -1.050781 7.359375 -0.53125 C 6.765625 -0.0078125 6.0625 0.25 5.25 0.25 Z M 7.40625 -4 C 7.820312 -4 8.117188 -4.171875 8.296875 -4.515625 C 8.472656 -4.859375 8.5625 -5.28125 8.5625 -5.78125 L 8.5625 -12.15625 C 7.75 -11.84375 7.148438 -11.445312 6.765625 -10.96875 C 6.378906 -10.488281 6.1875 -9.820312 6.1875 -8.96875 L 6.1875 -6.03125 C 6.1875 -4.675781 6.59375 -4 7.40625 -4 Z M 7.40625 -4 "/></g></g></g><g fill="#faf6f6" fill-opacity="1"><g transform="translate(611.308429, 46.158085)"><g><path d="M 5.8125 0.25 C 4.375 0.25 3.382812 -0.0507812 2.84375 -0.65625 C 2.300781 -1.257812 2.03125 -2.226562 2.03125 -3.5625 L 2.03125 -17.859375 L 0.5 -17.859375 L 0.5 -22.015625 L 2.03125 -22.015625 L 2.03125 -26.859375 L 7.34375 -26.859375 L 7.34375 -22.015625 L 8.90625 -22.015625 L 8.90625 -17.859375 L 7.34375 -17.859375 L 7.34375 -5 C 7.34375 -4.601562 7.375 -4.3125 7.4375 -4.125 C 7.5 -3.9375 7.664062 -3.84375 7.9375 -3.84375 C 8.144531 -3.84375 8.34375 -3.851562 8.53125 -3.875 C 8.71875 -3.894531 8.84375 -3.90625 8.90625 -3.90625 L 8.90625 -0.15625 C 8.59375 -0.0703125 8.140625 0.015625 7.546875 0.109375 C 6.953125 0.203125 6.375 0.25 5.8125 0.25 Z M 5.8125 0.25 "/></g></g></g><g fill="#faf6f6" fill-opacity="1"><g transform="translate(620.845283, 46.158085)"><g><path d="M 7.75 0.25 C 3.1875 0.25 0.90625 -2.113281 0.90625 -6.84375 L 0.90625 -16.046875 C 0.90625 -18.210938 1.515625 -19.9375 2.734375 -21.21875 C 3.953125 -22.5 5.625 -23.140625 7.75 -23.140625 C 9.875 -23.140625 11.546875 -22.5 12.765625 -21.21875 C 13.984375 -19.9375 14.59375 -18.210938 14.59375 -16.046875 L 14.59375 -6.84375 C 14.59375 -2.113281 12.3125 0.25 7.75 0.25 Z M 7.75 -3.96875 C 8.1875 -3.96875 8.507812 -4.125 8.71875 -4.4375 C 8.925781 -4.75 9.03125 -5.175781 9.03125 -5.71875 L 9.03125 -16.921875 C 9.03125 -18.253906 8.601562 -18.921875 7.75 -18.921875 C 6.894531 -18.921875 6.46875 -18.253906 6.46875 -16.921875 L 6.46875 -5.71875 C 6.46875 -5.175781 6.570312 -4.75 6.78125 -4.4375 C 6.988281 -4.125 7.3125 -3.96875 7.75 -3.96875 Z M 7.75 -3.96875 "/></g></g></g><g fill="#faf6f6" fill-opacity="1"><g transform="translate(636.385685, 46.158085)"><g><path d="M 1.09375 -22.890625 L 6.5625 -22.890625 L 6.5625 -20.359375 C 6.832031 -21.253906 7.304688 -21.945312 7.984375 -22.4375 C 8.660156 -22.925781 9.5 -23.171875 10.5 -23.171875 L 10.5 -18.609375 C 9.726562 -18.609375 8.878906 -18.5 7.953125 -18.28125 C 7.023438 -18.0625 6.5625 -17.804688 6.5625 -17.515625 L 6.5625 0 L 1.09375 0 Z M 1.09375 -22.890625 "/></g></g></g></svg>